<mxfile host="app.diagrams.net" modified="2022-05-17T09:33:24.232Z" agent="5.0 (X11)" etag="MzRAL5xfRduJ2qvL8iFc" version="17.4.4" type="github">
  <diagram id="zpWfCR6iwj-UCEg8vkta" name="Page-1">
    <mxGraphModel dx="868" dy="476" grid="0" gridSize="10" guides="1" tooltips="1" connect="1" arrows="1" fold="1" page="1" pageScale="1" pageWidth="850" pageHeight="1100" math="0" shadow="0">
      <root>
        <mxCell id="0" />
        <mxCell id="1" parent="0" />
        <mxCell id="X0EkLnCOXuJng3iPLUCG-1" value="" style="shape=mxgraph.signs.healthcare.medical_records;html=1;pointerEvents=1;strokeColor=none;verticalLabelPosition=bottom;verticalAlign=top;align=center;fillColor=#21C0A5;fontColor=#5C5C5C;" parent="1" vertex="1">
          <mxGeometry x="400" y="130" width="98" height="98" as="geometry" />
        </mxCell>
        <mxCell id="X0EkLnCOXuJng3iPLUCG-5" value="" style="shape=mxgraph.signs.healthcare.cath_lab;html=1;pointerEvents=1;fillColor=#000000;strokeColor=none;verticalLabelPosition=bottom;verticalAlign=top;align=center;rounded=0;sketch=0;fontColor=#5C5C5C;" parent="1" vertex="1">
          <mxGeometry x="230" y="139" width="98" height="100" as="geometry" />
        </mxCell>
        <mxCell id="X0EkLnCOXuJng3iPLUCG-7" value="" style="shape=flexArrow;endArrow=classic;html=1;rounded=1;sketch=0;fontColor=#5C5C5C;strokeColor=#006658;fillColor=#66FF66;curved=0;exitX=1;exitY=0.5;exitDx=0;exitDy=0;exitPerimeter=0;entryX=0.051;entryY=0.612;entryDx=0;entryDy=0;entryPerimeter=0;" parent="1" source="X0EkLnCOXuJng3iPLUCG-5" target="X0EkLnCOXuJng3iPLUCG-1" edge="1">
          <mxGeometry width="50" height="50" relative="1" as="geometry">
            <mxPoint x="400" y="240" as="sourcePoint" />
            <mxPoint x="370" y="200" as="targetPoint" />
          </mxGeometry>
        </mxCell>
        <mxCell id="X0EkLnCOXuJng3iPLUCG-8" value="&lt;font color=&quot;#FFFFFF&quot;&gt;&lt;b&gt;&lt;font style=&quot;font-size: 26px&quot;&gt;medical image system&lt;/font&gt;&lt;/b&gt;&lt;/font&gt;" style="ellipse;shape=cloud;whiteSpace=wrap;html=1;rounded=0;sketch=0;fontColor=#5C5C5C;strokeColor=#006658;fillColor=#21C0A5;" parent="1" vertex="1">
          <mxGeometry x="246.75" y="310" width="404.5" height="90" as="geometry" />
        </mxCell>
        <mxCell id="X0EkLnCOXuJng3iPLUCG-9" value="" style="shape=flexArrow;endArrow=classic;startArrow=classic;html=1;rounded=1;sketch=0;fontColor=#5C5C5C;strokeColor=#006658;fillColor=#66FF66;curved=0;entryX=0.49;entryY=1.041;entryDx=0;entryDy=0;entryPerimeter=0;" parent="1" source="X0EkLnCOXuJng3iPLUCG-8" target="X0EkLnCOXuJng3iPLUCG-1" edge="1">
          <mxGeometry width="100" height="100" relative="1" as="geometry">
            <mxPoint x="130" y="540" as="sourcePoint" />
            <mxPoint x="230" y="440" as="targetPoint" />
          </mxGeometry>
        </mxCell>
        <mxCell id="X0EkLnCOXuJng3iPLUCG-11" value="" style="shape=flexArrow;endArrow=classic;startArrow=classic;html=1;rounded=1;sketch=0;fontSize=26;fontColor=#FFFFFF;strokeColor=#006658;fillColor=#66FF66;curved=0;entryX=0.512;entryY=0.989;entryDx=0;entryDy=0;entryPerimeter=0;" parent="1" source="X0EkLnCOXuJng3iPLUCG-12" target="X0EkLnCOXuJng3iPLUCG-8" edge="1">
          <mxGeometry width="100" height="100" relative="1" as="geometry">
            <mxPoint x="454" y="470" as="sourcePoint" />
            <mxPoint x="190" y="440" as="targetPoint" />
          </mxGeometry>
        </mxCell>
        <mxCell id="X0EkLnCOXuJng3iPLUCG-12" value="" style="outlineConnect=0;dashed=0;verticalLabelPosition=bottom;verticalAlign=top;align=center;html=1;shape=mxgraph.aws3.machine_learning;fillColor=#2E73B8;gradientColor=none;rounded=0;sketch=0;fontSize=26;fontColor=#FFFFFF;strokeColor=#006658;" parent="1" vertex="1">
          <mxGeometry x="400" y="480" width="108.5" height="100" as="geometry" />
        </mxCell>
        <mxCell id="X0EkLnCOXuJng3iPLUCG-13" value="" style="image;html=1;image=img/lib/clip_art/people/Tech_Man_128x128.png;rounded=0;sketch=0;fontSize=26;fontColor=#FFFFFF;strokeColor=#006658;fillColor=#21C0A5;" parent="1" vertex="1">
          <mxGeometry x="220" y="490" width="80" height="80" as="geometry" />
        </mxCell>
        <mxCell id="X0EkLnCOXuJng3iPLUCG-14" value="" style="image;html=1;image=img/lib/clip_art/people/Tech_Man_128x128.png;rounded=0;sketch=0;fontSize=26;fontColor=#FFFFFF;strokeColor=#006658;fillColor=#21C0A5;" parent="1" vertex="1">
          <mxGeometry x="187" y="490" width="80" height="80" as="geometry" />
        </mxCell>
        <mxCell id="X0EkLnCOXuJng3iPLUCG-16" value="" style="edgeStyle=orthogonalEdgeStyle;curved=0;rounded=1;sketch=0;orthogonalLoop=1;jettySize=auto;html=1;fontSize=26;fontColor=#FFFFFF;strokeColor=#006658;fillColor=#66FF66;" parent="1" source="X0EkLnCOXuJng3iPLUCG-15" target="X0EkLnCOXuJng3iPLUCG-12" edge="1">
          <mxGeometry relative="1" as="geometry" />
        </mxCell>
        <mxCell id="X0EkLnCOXuJng3iPLUCG-15" value="" style="image;html=1;image=img/lib/clip_art/people/Tech_Man_128x128.png;rounded=0;sketch=0;fontSize=26;fontColor=#FFFFFF;strokeColor=#006658;fillColor=#21C0A5;" parent="1" vertex="1">
          <mxGeometry x="266.75" y="490" width="80" height="80" as="geometry" />
        </mxCell>
        <mxCell id="X0EkLnCOXuJng3iPLUCG-17" value="&lt;font color=&quot;#1A1A1A&quot;&gt;crawl&lt;/font&gt;" style="text;html=1;align=center;verticalAlign=middle;resizable=0;points=[];autosize=1;strokeColor=none;fillColor=none;fontSize=26;fontColor=#FFFFFF;" parent="1" vertex="1">
          <mxGeometry x="450" y="420" width="80" height="40" as="geometry" />
        </mxCell>
        <mxCell id="X0EkLnCOXuJng3iPLUCG-18" value="&lt;font color=&quot;#B5739D&quot;&gt;crawl&lt;/font&gt;" style="text;html=1;align=center;verticalAlign=middle;resizable=0;points=[];autosize=1;strokeColor=none;fillColor=none;fontSize=26;fontColor=#1A1A1A;" parent="1" vertex="1">
          <mxGeometry x="446" y="250" width="80" height="40" as="geometry" />
        </mxCell>
        <mxCell id="X0EkLnCOXuJng3iPLUCG-19" value="" style="image;html=1;image=img/lib/clip_art/networking/Cloud_Computer_128x128.png;rounded=0;sketch=0;fontSize=26;fontColor=#B5739D;strokeColor=#006658;fillColor=#21C0A5;" parent="1" vertex="1">
          <mxGeometry x="573" y="126" width="148" height="91" as="geometry" />
        </mxCell>
        <mxCell id="X0EkLnCOXuJng3iPLUCG-20" value="" style="shape=flexArrow;endArrow=classic;html=1;rounded=1;sketch=0;fontSize=26;fontColor=#B5739D;strokeColor=#006658;fillColor=#66FF66;curved=0;exitX=0.5;exitY=1;exitDx=0;exitDy=0;" parent="1" source="X0EkLnCOXuJng3iPLUCG-19" target="X0EkLnCOXuJng3iPLUCG-8" edge="1">
          <mxGeometry width="50" height="50" relative="1" as="geometry">
            <mxPoint x="95" y="352" as="sourcePoint" />
            <mxPoint x="145" y="302" as="targetPoint" />
          </mxGeometry>
        </mxCell>
        <mxCell id="ZSQIsq2KYaw6WXoADdSx-8" style="edgeStyle=orthogonalEdgeStyle;rounded=0;orthogonalLoop=1;jettySize=auto;html=1;exitX=1;exitY=0.5;exitDx=0;exitDy=0;entryX=0;entryY=0.5;entryDx=0;entryDy=0;fontSize=19;" edge="1" parent="1" source="ZSQIsq2KYaw6WXoADdSx-1" target="ZSQIsq2KYaw6WXoADdSx-5">
          <mxGeometry relative="1" as="geometry" />
        </mxCell>
        <mxCell id="ZSQIsq2KYaw6WXoADdSx-11" value="" style="edgeStyle=orthogonalEdgeStyle;rounded=0;orthogonalLoop=1;jettySize=auto;html=1;fontSize=19;" edge="1" parent="1" source="ZSQIsq2KYaw6WXoADdSx-1" target="ZSQIsq2KYaw6WXoADdSx-2">
          <mxGeometry relative="1" as="geometry" />
        </mxCell>
        <mxCell id="ZSQIsq2KYaw6WXoADdSx-12" value="" style="edgeStyle=orthogonalEdgeStyle;rounded=0;orthogonalLoop=1;jettySize=auto;html=1;fontSize=19;" edge="1" parent="1" source="ZSQIsq2KYaw6WXoADdSx-1" target="ZSQIsq2KYaw6WXoADdSx-6">
          <mxGeometry relative="1" as="geometry" />
        </mxCell>
        <mxCell id="ZSQIsq2KYaw6WXoADdSx-13" value="" style="edgeStyle=orthogonalEdgeStyle;rounded=0;orthogonalLoop=1;jettySize=auto;html=1;fontSize=19;" edge="1" parent="1" source="ZSQIsq2KYaw6WXoADdSx-1" target="ZSQIsq2KYaw6WXoADdSx-3">
          <mxGeometry relative="1" as="geometry" />
        </mxCell>
        <mxCell id="ZSQIsq2KYaw6WXoADdSx-1" value="&lt;font style=&quot;font-size: 19px&quot;&gt;scrapy engine&lt;/font&gt;" style="rhombus;whiteSpace=wrap;html=1;" vertex="1" parent="1">
          <mxGeometry x="408.5" y="800" width="100" height="90" as="geometry" />
        </mxCell>
        <mxCell id="ZSQIsq2KYaw6WXoADdSx-2" value="scheduler调度器" style="rounded=0;whiteSpace=wrap;html=1;fontSize=19;" vertex="1" parent="1">
          <mxGeometry x="413.5" y="690" width="90" height="50" as="geometry" />
        </mxCell>
        <mxCell id="ZSQIsq2KYaw6WXoADdSx-3" value="Item Pipelines数据结构与处理" style="rounded=0;whiteSpace=wrap;html=1;fontSize=19;" vertex="1" parent="1">
          <mxGeometry x="107" y="815" width="140" height="60" as="geometry" />
        </mxCell>
        <mxCell id="ZSQIsq2KYaw6WXoADdSx-4" value="internet" style="ellipse;shape=cloud;whiteSpace=wrap;html=1;fontSize=19;" vertex="1" parent="1">
          <mxGeometry x="695" y="680" width="120" height="50" as="geometry" />
        </mxCell>
        <mxCell id="ZSQIsq2KYaw6WXoADdSx-5" value="download下载器" style="rounded=0;whiteSpace=wrap;html=1;fontSize=19;" vertex="1" parent="1">
          <mxGeometry x="705" y="820" width="100" height="50" as="geometry" />
        </mxCell>
        <mxCell id="ZSQIsq2KYaw6WXoADdSx-6" value="spider爬虫" style="rounded=0;whiteSpace=wrap;html=1;fontSize=19;" vertex="1" parent="1">
          <mxGeometry x="398.5" y="1071" width="120" height="30" as="geometry" />
        </mxCell>
        <mxCell id="ZSQIsq2KYaw6WXoADdSx-7" value="" style="shape=flexArrow;endArrow=classic;startArrow=classic;html=1;rounded=0;fontSize=19;entryX=0.492;entryY=1;entryDx=0;entryDy=0;entryPerimeter=0;exitX=0.5;exitY=0;exitDx=0;exitDy=0;fillColor=#dae8fc;strokeColor=#6c8ebf;" edge="1" parent="1" source="ZSQIsq2KYaw6WXoADdSx-5" target="ZSQIsq2KYaw6WXoADdSx-4">
          <mxGeometry width="100" height="100" relative="1" as="geometry">
            <mxPoint x="655" y="830" as="sourcePoint" />
            <mxPoint x="755" y="760" as="targetPoint" />
          </mxGeometry>
        </mxCell>
        <mxCell id="ZSQIsq2KYaw6WXoADdSx-9" value="download middleware" style="text;html=1;align=center;verticalAlign=middle;resizable=0;points=[];autosize=1;strokeColor=none;fillColor=none;fontSize=19;" vertex="1" parent="1">
          <mxGeometry x="502" y="819" width="200" height="30" as="geometry" />
        </mxCell>
        <mxCell id="ZSQIsq2KYaw6WXoADdSx-10" value="下载中间件" style="text;html=1;align=center;verticalAlign=middle;resizable=0;points=[];autosize=1;strokeColor=none;fillColor=none;fontSize=19;" vertex="1" parent="1">
          <mxGeometry x="542" y="847" width="110" height="30" as="geometry" />
        </mxCell>
        <mxCell id="ZSQIsq2KYaw6WXoADdSx-14" value="爬虫中间件" style="text;html=1;align=center;verticalAlign=middle;resizable=0;points=[];autosize=1;strokeColor=none;fillColor=none;fontSize=19;rotation=90;" vertex="1" parent="1">
          <mxGeometry x="420" y="970" width="110" height="30" as="geometry" />
        </mxCell>
        <mxCell id="ZSQIsq2KYaw6WXoADdSx-15" value="spider middlerwares" style="text;html=1;align=center;verticalAlign=middle;resizable=0;points=[];autosize=1;strokeColor=none;fillColor=none;fontSize=19;rotation=90;" vertex="1" parent="1">
          <mxGeometry x="351" y="961" width="190" height="30" as="geometry" />
        </mxCell>
        <mxCell id="ZSQIsq2KYaw6WXoADdSx-16" value="" style="shape=flexArrow;endArrow=classic;html=1;rounded=0;fontSize=19;entryX=0.106;entryY=1.04;entryDx=0;entryDy=0;entryPerimeter=0;exitX=0.179;exitY=-0.1;exitDx=0;exitDy=0;exitPerimeter=0;fillColor=#dae8fc;strokeColor=#6c8ebf;" edge="1" parent="1" source="ZSQIsq2KYaw6WXoADdSx-6" target="ZSQIsq2KYaw6WXoADdSx-2">
          <mxGeometry width="50" height="50" relative="1" as="geometry">
            <mxPoint x="370" y="1050" as="sourcePoint" />
            <mxPoint x="420" y="1000" as="targetPoint" />
          </mxGeometry>
        </mxCell>
        <mxCell id="ZSQIsq2KYaw6WXoADdSx-17" value="requests" style="text;html=1;align=center;verticalAlign=middle;resizable=0;points=[];autosize=1;strokeColor=none;fillColor=none;fontSize=19;rotation=90;" vertex="1" parent="1">
          <mxGeometry x="360" y="900" width="90" height="30" as="geometry" />
        </mxCell>
        <mxCell id="ZSQIsq2KYaw6WXoADdSx-18" value="" style="curved=1;endArrow=classic;html=1;rounded=0;fontSize=19;" edge="1" parent="1">
          <mxGeometry width="50" height="50" relative="1" as="geometry">
            <mxPoint x="510" y="710" as="sourcePoint" />
            <mxPoint x="700" y="810" as="targetPoint" />
            <Array as="points">
              <mxPoint x="510" y="770" />
              <mxPoint x="570" y="820" />
            </Array>
          </mxGeometry>
        </mxCell>
        <mxCell id="ZSQIsq2KYaw6WXoADdSx-19" value="requests" style="text;html=1;align=center;verticalAlign=middle;resizable=0;points=[];autosize=1;strokeColor=none;fillColor=none;fontSize=19;" vertex="1" parent="1">
          <mxGeometry x="526" y="785" width="90" height="30" as="geometry" />
        </mxCell>
        <mxCell id="ZSQIsq2KYaw6WXoADdSx-20" value="" style="curved=1;endArrow=classic;html=1;rounded=0;fontSize=19;" edge="1" parent="1">
          <mxGeometry width="50" height="50" relative="1" as="geometry">
            <mxPoint x="740" y="880" as="sourcePoint" />
            <mxPoint x="500" y="1060" as="targetPoint" />
            <Array as="points">
              <mxPoint x="650" y="880" />
              <mxPoint x="520" y="920" />
            </Array>
          </mxGeometry>
        </mxCell>
        <mxCell id="ZSQIsq2KYaw6WXoADdSx-21" value="response" style="text;html=1;align=center;verticalAlign=middle;resizable=0;points=[];autosize=1;strokeColor=none;fillColor=none;fontSize=19;" vertex="1" parent="1">
          <mxGeometry x="525" y="905" width="90" height="30" as="geometry" />
        </mxCell>
        <mxCell id="ZSQIsq2KYaw6WXoADdSx-22" value="" style="curved=1;endArrow=classic;html=1;rounded=0;fontSize=19;" edge="1" parent="1">
          <mxGeometry width="50" height="50" relative="1" as="geometry">
            <mxPoint x="390" y="1050" as="sourcePoint" />
            <mxPoint x="210" y="890" as="targetPoint" />
            <Array as="points">
              <mxPoint x="380" y="940" />
              <mxPoint x="330" y="890" />
            </Array>
          </mxGeometry>
        </mxCell>
        <mxCell id="ZSQIsq2KYaw6WXoADdSx-23" value="item infos" style="edgeLabel;html=1;align=center;verticalAlign=middle;resizable=0;points=[];fontSize=19;" vertex="1" connectable="0" parent="ZSQIsq2KYaw6WXoADdSx-22">
          <mxGeometry x="0.4554" y="6" relative="1" as="geometry">
            <mxPoint x="-2" y="19" as="offset" />
          </mxGeometry>
        </mxCell>
      </root>
    </mxGraphModel>
  </diagram>
</mxfile>
